<?xml version="1.0" encoding="UTF-8" standalone="no"?>
<!-- Created with Inkscape (http://www.inkscape.org/) -->

<svg
   xmlns:dc="http://purl.org/dc/elements/1.1/"
   xmlns:cc="http://creativecommons.org/ns#"
   xmlns:rdf="http://www.w3.org/1999/02/22-rdf-syntax-ns#"
   xmlns:svg="http://www.w3.org/2000/svg"
   xmlns="http://www.w3.org/2000/svg"
   xmlns:xlink="http://www.w3.org/1999/xlink"
   xmlns:sodipodi="http://sodipodi.sourceforge.net/DTD/sodipodi-0.dtd"
   xmlns:inkscape="http://www.inkscape.org/namespaces/inkscape"
   id="svg2985"
   version="1.1"
   inkscape:version="0.48.4 r9939"
   width="625"
   height="625"
   xml:space="preserve"
   sodipodi:docname="phone_icon2.ai"><metadata
     id="metadata2991"><rdf:RDF><cc:Work
         rdf:about=""><dc:format>image/svg+xml</dc:format><dc:type
           rdf:resource="http://purl.org/dc/dcmitype/StillImage" /><dc:title></dc:title></cc:Work></rdf:RDF></metadata><defs
     id="defs2989"><clipPath
       clipPathUnits="userSpaceOnUse"
       id="clipPath3011"><path
         d="M 0,500 500,500 500,0 0,0 0,500 z"
         id="path3013" /></clipPath><linearGradient
       x1="0"
       y1="0"
       x2="1"
       y2="0"
       gradientUnits="userSpaceOnUse"
       gradientTransform="matrix(-1.53e-5,-500,-500,1.53e-5,249.99951,499.99951)"
       spreadMethod="pad"
       id="linearGradient3019"><stop
         style="stop-opacity:1;stop-color:#ffffff"
         offset="0"
         id="stop3021" /><stop
         style="stop-opacity:1;stop-color:#000000"
         offset="1"
         id="stop3023" /></linearGradient><clipPath
       clipPathUnits="userSpaceOnUse"
       id="clipPath3047"><path
         d="m 8.5332,491.468 482.9328,0 0,-482.9348 -482.9328,0 0,482.9348 z"
         id="path3049" /></clipPath><radialGradient
       fx="0"
       fy="0"
       cx="0"
       cy="0"
       r="1"
       gradientUnits="userSpaceOnUse"
       gradientTransform="matrix(415.61337,0,0,-415.61337,253,473.48975)"
       spreadMethod="pad"
       id="radialGradient3055"><stop
         style="stop-opacity:1;stop-color:#ffffff"
         offset="0"
         id="stop3057" /><stop
         style="stop-opacity:1;stop-color:#000000"
         offset="1"
         id="stop3059" /></radialGradient><radialGradient
       id="radialGradient3154"
       spreadMethod="pad"
       gradientTransform="matrix(415.61337,0,0,-415.61337,253,473.48975)"
       gradientUnits="userSpaceOnUse"
       r="1"
       cy="0"
       cx="0"
       fy="0"
       fx="0"><stop
         id="stop3156"
         offset="0"
         style="stop-opacity:1;stop-color:#ffffff" /><stop
         id="stop3158"
         offset="1"
         style="stop-opacity:1;stop-color:#000000" /></radialGradient><clipPath
       id="clipPath3146"
       clipPathUnits="userSpaceOnUse"><path
         id="path3148"
         d="m 8.5332,491.468 482.9328,0 0,-482.9348 -482.9328,0 0,482.9348 z" /></clipPath><linearGradient
       id="linearGradient3118"
       spreadMethod="pad"
       gradientTransform="matrix(-1.53e-5,-500,-500,1.53e-5,249.99951,499.99951)"
       gradientUnits="userSpaceOnUse"
       y2="0"
       x2="1"
       y1="0"
       x1="0"><stop
         id="stop3120"
         offset="0"
         style="stop-opacity:1;stop-color:#ffffff" /><stop
         id="stop3122"
         offset="1"
         style="stop-opacity:1;stop-color:#000000" /></linearGradient><clipPath
       id="clipPath3110"
       clipPathUnits="userSpaceOnUse"><path
         id="path3112"
         d="M 0,500 500,500 500,0 0,0 0,500 z" /></clipPath><clipPath
       id="clipPath3098"
       clipPathUnits="userSpaceOnUse"><path
         id="path3100"
         d="M 0,500 500,500 500,0 0,0 0,500 z" /></clipPath><linearGradient
       inkscape:collect="always"
       xlink:href="#linearGradient3118"
       id="linearGradient3254"
       gradientUnits="userSpaceOnUse"
       gradientTransform="matrix(-1.53e-5,-500,-500,1.53e-5,249.99951,499.99951)"
       spreadMethod="pad"
       x1="0"
       y1="0"
       x2="1"
       y2="0" /><radialGradient
       inkscape:collect="always"
       xlink:href="#radialGradient3154"
       id="radialGradient3256"
       gradientUnits="userSpaceOnUse"
       gradientTransform="matrix(415.61337,0,0,-415.61337,253,473.48975)"
       spreadMethod="pad"
       cx="0"
       cy="0"
       fx="0"
       fy="0"
       r="1" /></defs><sodipodi:namedview
     pagecolor="#ffffff"
     bordercolor="#666666"
     borderopacity="1"
     objecttolerance="10"
     gridtolerance="10"
     guidetolerance="10"
     inkscape:pageopacity="0"
     inkscape:pageshadow="2"
     inkscape:window-width="1600"
     inkscape:window-height="838"
     id="namedview2987"
     showgrid="false"
     showguides="true"
     inkscape:guide-bbox="true"
     inkscape:zoom="0.19392799"
     inkscape:cx="1945.6573"
     inkscape:cy="329.57602"
     inkscape:window-x="-8"
     inkscape:window-y="-8"
     inkscape:window-maximized="1"
     inkscape:current-layer="g2993"><sodipodi:guide
       orientation="1,0"
       position="256,689.28577"
       id="guide3258" /><sodipodi:guide
       orientation="0,1"
       position="-60.075365,256"
       id="guide3262" /></sodipodi:namedview><g
     id="g2993"
     inkscape:groupmode="layer"
     inkscape:label="phone_icon2"
     transform="matrix(1.25,0,0,-1.25,0,625)"><g
       id="g2995"><g
         inkscape:label="phone_icon2"
         id="g3092"
         transform="matrix(0.8192,0,0,0.8192,11.722111,-24.419207)"><g
           id="g3096"
           clip-path="url(#clipPath3098)"
           transform="translate(-10.752684,31.490014)"><g
             id="g3102"
             transform="translate(87.499,499.9995)"><path
               inkscape:connector-curvature="0"
               d="m 0,0 325,0 c 48.125,0 87.501,-39.375 87.501,-87.499 l 0,-325.001 c 0,-48.125 -39.376,-87.5 -87.501,-87.5 l -325,0 c -48.124,0 -87.499,39.375 -87.499,87.5 l 0,325.001 C -87.499,-39.375 -48.124,0 0,0"
               style="fill:#33b5e5;fill-opacity:1;fill-rule:evenodd;stroke:none"
               id="path3104" /></g><g
             id="g3106"><g
               id="g3108" /><g
               id="g3124"><g
                 clip-path="url(#clipPath3110)"
                 id="g3126"><g
                   id="g3128"><g
                     id="g3130"><g
                       id="g3132"><g
                         id="g3134"><path
                           inkscape:connector-curvature="0"
                           d="m 87.499,500 325,0 C 460.624,500 500,460.625 500,412.5 l 0,-325 C 500,39.375 460.624,0 412.499,0 l -325,0 C 39.375,0 0,39.375 0,87.5 l 0,325 C 0,460.625 39.375,500 87.499,500"
                           style="fill:url(#linearGradient3254);fill-rule:evenodd;stroke:none"
                           id="path3136" /></g></g></g></g></g></g></g><g
             id="g3138"
             transform="translate(87.499,491.4678)"><path
               inkscape:connector-curvature="0"
               d="m 0,0 325,0 c 43.435,0 78.967,-35.535 78.967,-78.967 l 0,-325.001 c 0,-43.431 -35.532,-78.967 -78.967,-78.967 l -325,0 c -43.432,0 -78.966,35.536 -78.966,78.967 l 0,325.001 C -78.966,-35.535 -43.432,0 0,0"
               style="fill:#33b5e5;fill-opacity:1;fill-rule:evenodd;stroke:none"
               id="path3140" /></g><g
             id="g3142"><g
               id="g3144" /><g
               id="g3160"><g
                 style="opacity:0.5"
                 clip-path="url(#clipPath3146)"
                 id="g3162"><g
                   id="g3164"><g
                     id="g3166"><g
                       id="g3168"><g
                         id="g3170"><path
                           inkscape:connector-curvature="0"
                           d="m 87.499,491.468 325,0 c 43.435,0 78.967,-35.535 78.967,-78.968 l 0,-325 c 0,-43.432 -35.532,-78.967 -78.967,-78.967 l -325,0 C 44.067,8.533 8.533,44.068 8.533,87.5 l 0,325 c 0,43.433 35.534,78.968 78.966,78.968"
                           style="fill:url(#radialGradient3256);fill-rule:evenodd;stroke:none"
                           id="path3172" /></g></g></g></g></g></g></g><g
             id="g3174"
             transform="translate(234.8916,270.8081)" /><g
             id="g3178"
             transform="translate(213.1382,183.8896)"><path
               inkscape:connector-curvature="0"
               d="m -46.275354,23.467006 c 29.089,52.052 69.659,92.625004 121.715,121.712004 l 16.71,-29.22 c 1.637,-2.864 3.229999,-6.058 5.127004,-5.014 35.774,19.636 72.88599,33.23 106.962,45.162 2.047,0.717 3.244,3.489 2.52699,6.714 -10.24099,46.09399 -21.1,85.31999 -85.11997,71.09899 -84.416024,-18.752 -239.08001,-177.523994 -256.66001,-256.658994 -14.219,-64.019 25.00498,-74.880996 71.099986,-85.118996 3.224,-0.718 5.998,0.476 6.713,2.524 11.932,34.075996 25.526,71.194996 45.164999,106.9639951 1.044,1.899 -2.152,3.491 -5.013999,5.128 l -29.225,16.7090009 z"
               style="fill:#f4f7f8;fill-opacity:1;fill-rule:evenodd;stroke:none"
               id="path3180" /></g></g></g></g></g></svg>